/* XPM */
static char *ex1198[] = {
/* columns rows colors chars-per-pixel */
"208 39 2 1 ",
"  c white",
". c black",
/* pixels */
"                                                                                                                                                                                                                ",
"                                                                                                                                                                                                                ",
"                                                                                                                                                                                                                ",
"                                                                                                                                                                                                                ",
"                                                                                                                                                                                                                ",
"                                                                                                                                                                                                                ",
"                                                   .....                                                                                                             .....                             .....    ",
"     .............                                ......                                                 . .         ......        .......                          ......                            ......    ",
"     ...............                              ......                                               .....         ......       .......                           ......                            ......    ",
"     ................                             ......                                              ......         ......     ........                            ......                            ......    ",
"     .................                            . . .                                               ......        .......    ........                             . .                                ...      ",
"    ....... . ........                                                                                ......        ......    .......                                                                           ",
"    ......      ......          .......          ......          .......               ........    ..............   ......   .......           ..........          ......         .....   ......     ......     ",
"    ......      ......        ...........        ......        ...........           ...........   ..............   ......  .......          ..............        ......       ......... ......     ......     ",
"    ......      ......      ..............       ......      ..............        ..............  ..............   ..............           ...............       .....       ................      ......     ",
"    ......     ......      ................      .....      ................      ..............  ..............   ..............            ...... ........       .....      .................      .....      ",
"   ......     .......     .......    ......     ......     ......     ......     ........     ..     ......        ............              .        ......       .....     .......   ........     ......      ",
"   .................      ......      .....      .....     ......      .....     ......              ......        ............                        ......     ......    .......     .......      .....      ",
"   ...............       ......       ......    ......    ......       ......   ......               .....         ..........                  .............      ......    ......      .......     ......      ",
"   ..............        ..................     ......    ..................    ......              ......         ............              ................     ......    ......       .....      ......      ",
"   ...............      ...................     .....    ...................    ......              ......         ............            .................      .....     .....        .....      .....       ",
"  .......   .......     ...................     .....    ...................   ......               ......        ...... .......           ...... .  .......      .....    ......       ......      .....       ",
"  ......     ......     .......  .. . . . .    ......    ........  .. . .  .   ......               ......        ......  .......         ......      ......     ......    ......       ......     ......       ",
"  ......      ......     .....                 ......    ......                ......               .....         ......   .......        .....       ......     ......    ......       ......     ......       ",
"  ......      ......    ......           .     ......    ......                .......              .....        .......    .......      ......      .......     ......    ......      .......     .....        ",
" .......      ......     ......        ..      .....     .......       ....     .......      .     .......        ......     .......      ......    .......      .....      .......   .......      ......       ",
" ......        ......    ................      .....      ................      ..............      ..........   ......       ......      .................      .....      .................      .....        ",
" ......        ......     ...............     ......       ...............       .............      ..........   ......       .......     .................     ......      .................     ......        ",
" ......        ......      ..............     ......        ..............        ...........       ..........   ......        .......     ......... ......     ......       ......... ......     ......        ",
" ......        ......        .........        ......          .........             ........          .......    ......         .......      ....    .....      ......         .....   .....      ......        ",
"                                              .....                                                                                                                                   ......                    ",
"                                             ......                                                                                                                                   ......                    ",
"                                             ......                                                                                                                        ..       .......                     ",
"                                          ........                                                                                                                         ...............                      ",
"                                         ........                                                                                                                          ..............                       ",
"                                         ........                                                                                                                          .............                        ",
"                                         ......                                                                                                                              ........                           ",
"                                                                                                                                                                                                                ",
"                                                                                                                                                                                                                "
};
